<svg width="640" height="480" xmlns="http://www.w3.org/2000/svg">

 <g>
  <title>background</title>
  <rect fill="none" id="canvas_background" height="482" width="642" y="-1" x="-1"/>
 </g>
 <g>
  <title>Layer 1</title>
  <g display="none" id="robot">
   <path id="svg_1" d="m75.5,126.5c0,6.627 -5.373,12 -12,12l-26,0c-6.627,0 -12,-5.373 -12,-12l-5,-32c0,-6.627 5.373,-12 12,-12l36,0c6.627,0 12,5.373 12,12l-5,32z" fill="#231F20"/>
  </g>
  <g stroke="null" id="robot_1_">
   <path stroke="null" id="svg_2" d="m383.3,121.5l-120.6,0c-22.20045,0 -40.2,18.42171 -40.2,41.14286l16.75,109.71428c0,22.72114 17.99955,41.14285 40.2,41.14285l87.1,0c22.20045,0 40.2,-18.42171 40.2,-41.14285l16.74999,-109.71428c0,-22.72115 -17.99954,-41.14286 -40.19999,-41.14286zm-97.15,102.85714c-12.9511,0 -23.45,-10.74514 -23.45,-24s10.4989,-24 23.45,-24s23.45,10.74514 23.45,24s-10.4989,24 -23.45,24zm46.9,58.28571l-20.1,0c-5.55095,0 -10.05,-4.60457 -10.05,-10.28571s4.49905,-10.28572 10.05,-10.28572l20.1,0c5.55095,0 10.05,4.60458 10.05,10.28572s-4.49905,10.28571 -10.05,10.28571zm26.8,-58.28571c-12.9511,0 -23.45,-10.74514 -23.45,-24s10.4989,-24 23.45,-24s23.45,10.74514 23.45,24s-10.4989,24 -23.45,24z" fill="#ff6666"/>
  </g>
 </g>
</svg>
