<svg width="250" height="231" xmlns="http://www.w3.org/2000/svg">
 <g>
  <title>background</title>
  <rect x="-1" y="-1" width="252" height="233" id="canvas_background" fill="none"/>
 </g>

 <g>
  <title>Layer 1</title>
  <g stroke="null" id="svg_19">
   <g stroke="null" transform="matrix(0.7813719218746082,0,0,0.8459369914676992,-908.074640900361,-913.9557531434403) " id="svg_17">
    <title stroke="null" transform="translate(8.913334846496582,-13.003332138061523) translate(-3.820000648498535,11.821210861206055) translate(1192.67578125,0) translate(0,1102.032470703125) ">background</title>
    <rect stroke="null" fill="none" id="svg_15" height="233" width="252" y="1099.850349" x="1196.769115"/>
   </g>
   <g stroke="null" transform="matrix(0.7813719218746082,0,0,0.8459369914676992,-908.074640900361,-913.9557531434403) " id="svg_18">
    <title stroke="null" transform="translate(8.913334846496582,-13.003332138061523) translate(-3.820000648498535,11.821210861206055) translate(1192.67578125,0) translate(0,1102.032470703125) ">Layer 1</title>
    <g stroke="null" display="none" id="svg_13">
     <path stroke="null" id="svg_14" d="m1252.769115,1144.850349c0,6.627 -5.373,12 -12,12l-26,0c-6.627,0 -12,-5.373 -12,-12l-5,-32c0,-6.627 5.373,-12 12,-12l36,0c6.627,0 12,5.373 12,12l-5,32z" fill="#231F20"/>
    </g>
    <g stroke="null" id="svg_11">
     <path stroke="null" id="svg_12" d="m1382.169115,1116.850349l-118.8,0c-21.8691,0 -39.6,18.99739 -39.6,42.42857l16.5,113.14285c0,23.43118 17.7309,42.42857 39.6,42.42857l85.8,0c21.8691,0 39.6,-18.99739 39.6,-42.42857l16.49999,-113.14285c0,-23.43118 -17.73089,-42.42857 -39.59999,-42.42857zm-95.7,106.07143c-12.7578,0 -23.1,-11.08093 -23.1,-24.75s10.3422,-24.75 23.1,-24.75s23.1,11.08092 23.1,24.75s-10.3422,24.75 -23.1,24.75zm46.2,60.10713l-19.8,0c-5.4681,0 -9.9,-4.74846 -9.9,-10.60713s4.4319,-10.60715 9.9,-10.60715l19.8,0c5.4681,0 9.9,4.74847 9.9,10.60715s-4.4319,10.60713 -9.9,10.60713zm26.4,-60.10713c-12.7578,0 -23.1,-11.08093 -23.1,-24.75s10.3422,-24.75 23.1,-24.75s23.1,11.08092 23.1,24.75s-10.3422,24.75 -23.1,24.75z" fill="#ff6666"/>
    </g>
   </g>
  </g>
 </g>
</svg>
